<svg width="117" height="35" viewBox="0 0 117 35" fill="none" xmlns="http://www.w3.org/2000/svg">
<path d="M29.0403 14.049C28.7954 6.37741 22.5791 0.186542 14.8817 0C14.6834 0 14.5202 0.151566 14.5202 0.349767L14.5085 5.503C14.5085 5.75949 14.3102 5.95769 14.0536 5.96935C6.37954 6.20253 0.186604 12.4284 0 20.1233C0 20.3215 0.151616 20.4847 0.349883 20.4847L5.49317 20.4963C5.74975 20.4963 5.94802 20.6945 5.95968 20.951C6.2046 28.6226 12.4325 34.8135 20.1183 35C20.3166 35 20.4798 34.8484 20.4798 34.6502L20.4915 29.497C20.4915 29.2405 20.6898 29.0423 20.9464 29.0306C28.6205 28.7858 34.8134 22.56 35 14.8767C35 14.6785 34.8484 14.5153 34.6501 14.5153L29.5068 14.5037C29.2502 14.5037 29.052 14.3055 29.0403 14.049ZM19.9783 28.9957C15.6165 28.7392 12.1176 25.1949 11.9543 20.8111C11.9427 20.6246 11.7911 20.473 11.6045 20.473L6.47284 20.4614C6.2046 20.4614 5.99467 20.2398 6.00633 19.9717C6.26291 15.6113 9.8084 12.1136 14.1936 11.9504C14.3802 11.9387 14.5318 11.7871 14.5318 11.6006L14.5435 6.45903C14.5435 6.19087 14.7651 5.98101 15.0333 5.99267C19.3952 6.24917 22.894 9.79347 23.0573 14.1772C23.069 14.3638 23.2206 14.5153 23.4072 14.5153L28.5388 14.527C28.8071 14.527 29.017 14.7485 29.0053 15.0167C28.7488 19.4937 25.0283 23.0496 20.4915 23.0496L20.4798 28.5293C20.4682 28.7975 20.2466 29.0073 19.9783 28.9957Z" fill="#E60000"/>
<path fill-rule="evenodd" clip-rule="evenodd" d="M14.3677 14.3983C14.3677 13.6928 15.124 13.2456 15.7422 13.5856L21.4509 16.7254C22.0916 17.0778 22.0916 17.9984 21.4509 18.3508L15.7422 21.4905C15.124 21.8305 14.3677 21.3833 14.3677 20.6779V14.3983Z" fill="white"/>
<path d="M36.75 15.6949C36.75 15.2523 36.8335 14.837 37.0004 14.4491C37.1674 14.0612 37.3932 13.7231 37.678 13.4347C37.9678 13.1412 38.3041 12.91 38.6871 12.7409C39.0701 12.5718 39.4801 12.4873 39.9171 12.4873H44.7636V14.6282H39.9171C39.7698 14.6282 39.6323 14.6555 39.5047 14.7102C39.377 14.7649 39.2641 14.842 39.1659 14.9415C39.0726 15.036 38.9989 15.1479 38.9449 15.2771C38.8909 15.4064 38.8639 15.5457 38.8639 15.6949C38.8639 15.8441 38.8909 15.9858 38.9449 16.1201C38.9989 16.2494 39.0726 16.3638 39.1659 16.4632C39.2641 16.5577 39.377 16.6323 39.5047 16.687C39.6323 16.7417 39.7698 16.7691 39.9171 16.7691H42.031C42.4681 16.7691 42.8781 16.8536 43.2611 17.0227C43.649 17.1868 43.9853 17.4155 44.2701 17.7089C44.5598 17.9974 44.7857 18.338 44.9478 18.7309C45.1147 19.1188 45.1982 19.534 45.1982 19.9766C45.1982 20.4192 45.1147 20.8345 44.9478 21.2224C44.7857 21.6103 44.5598 21.9509 44.2701 22.2443C43.9853 22.5328 43.649 22.7615 43.2611 22.9306C42.8781 23.0997 42.4681 23.1842 42.031 23.1842H37.3392V21.0433H42.031C42.1783 21.0433 42.3158 21.016 42.4435 20.9613C42.5712 20.9066 42.6816 20.832 42.7749 20.7375C42.8732 20.638 42.9493 20.5237 43.0033 20.3944C43.0573 20.2651 43.0843 20.1258 43.0843 19.9766C43.0843 19.8274 43.0573 19.6882 43.0033 19.5589C42.9493 19.4296 42.8732 19.3177 42.7749 19.2232C42.6816 19.1238 42.5712 19.0467 42.4435 18.992C42.3158 18.9373 42.1783 18.9099 42.031 18.9099H39.9171C39.4801 18.9099 39.0701 18.8254 38.6871 18.6563C38.3041 18.4872 37.9678 18.2585 37.678 17.97C37.3932 17.6766 37.1674 17.336 37.0004 16.9481C36.8335 16.5552 36.75 16.1375 36.75 15.6949Z" fill="white"/>
<path d="M50.1993 23.1842C49.7132 23.1842 49.2565 23.0922 48.8294 22.9082C48.4022 22.7192 48.0265 22.4631 47.7024 22.1399C47.3833 21.8117 47.1304 21.4312 46.9438 20.9986C46.7621 20.5659 46.6713 20.1034 46.6713 19.6111V17.239H45.6917V15.21H46.6713V12.0173H48.6747V15.21H51.724V17.239H48.6747V19.6111C48.6747 19.825 48.714 20.0264 48.7925 20.2153C48.8711 20.3993 48.9791 20.561 49.1166 20.7002C49.2541 20.8395 49.4161 20.9513 49.6027 21.0359C49.7893 21.1155 49.9882 21.1552 50.1993 21.1552H51.724V23.1842H50.1993Z" fill="white"/>
<path d="M54.869 23.1842H52.8583V15.1951H53.3444L54.0073 16.1425C54.3313 15.8441 54.6996 15.6153 55.1121 15.4562C55.5246 15.2921 55.9517 15.21 56.3937 15.21H58.1688V17.239H56.3937C56.1825 17.239 55.9837 17.2788 55.7971 17.3584C55.6105 17.4379 55.4484 17.5473 55.311 17.6866C55.1735 17.8258 55.0654 17.9899 54.9869 18.1789C54.9083 18.3679 54.869 18.5693 54.869 18.7831V23.1842Z" fill="white"/>
<path d="M62.0945 21.2298C62.1731 21.2547 62.2517 21.2721 62.3302 21.2821C62.4088 21.287 62.4874 21.2895 62.5659 21.2895C62.7623 21.2895 62.9514 21.2622 63.1331 21.2075C63.3148 21.1528 63.4842 21.0757 63.6413 20.9762C63.8033 20.8718 63.9457 20.7475 64.0685 20.6032C64.1961 20.454 64.2993 20.2899 64.3778 20.1109L65.8509 21.6103C65.6643 21.8788 65.4483 22.12 65.2028 22.3338C64.9622 22.5477 64.6995 22.7292 64.4147 22.8784C64.1348 23.0276 63.8377 23.1395 63.5234 23.2141C63.2141 23.2936 62.8949 23.3334 62.5659 23.3334C62.0111 23.3334 61.4881 23.229 60.9971 23.0201C60.511 22.8113 60.0838 22.5203 59.7155 22.1474C59.3521 21.7744 59.0649 21.3318 58.8537 20.8196C58.6426 20.3024 58.537 19.7354 58.537 19.1188C58.537 18.4872 58.6426 17.9104 58.8537 17.3882C59.0649 16.866 59.3521 16.4209 59.7155 16.0529C60.0838 15.6849 60.511 15.399 60.9971 15.1951C61.4881 14.9912 62.0111 14.8893 62.5659 14.8893C62.8949 14.8893 63.2165 14.929 63.5308 15.0086C63.8451 15.0882 64.1421 15.2026 64.422 15.3517C64.7068 15.5009 64.972 15.6849 65.2175 15.9037C65.463 16.1176 65.6791 16.3588 65.8657 16.6273L62.0945 21.2298ZM63.1257 17.0301C63.0324 16.9953 62.9391 16.9729 62.8458 16.963C62.7574 16.9531 62.6641 16.9481 62.5659 16.9481C62.291 16.9481 62.0307 17.0003 61.7852 17.1047C61.5446 17.2042 61.3334 17.3484 61.1518 17.5374C60.975 17.7264 60.835 17.9551 60.7319 18.2237C60.6288 18.4872 60.5773 18.7856 60.5773 19.1188C60.5773 19.1934 60.5797 19.2779 60.5846 19.3724C60.5944 19.4669 60.6067 19.5639 60.6214 19.6633C60.6411 19.7578 60.6632 19.8498 60.6877 19.9393C60.7123 20.0289 60.7442 20.1084 60.7835 20.178L63.1257 17.0301Z" fill="white"/>
<path d="M74.4611 23.1842H73.975L73.1943 22.0877C73.0028 22.2617 72.799 22.4258 72.583 22.58C72.3718 22.7292 72.1484 22.861 71.9127 22.9754C71.677 23.0848 71.4339 23.1718 71.1835 23.2364C70.938 23.3011 70.6876 23.3334 70.4322 23.3334C69.8774 23.3334 69.3544 23.2389 68.8634 23.05C68.3773 22.861 67.9501 22.5875 67.5818 22.2294C67.2184 21.8664 66.9312 21.4238 66.72 20.9016C66.5089 20.3795 66.4033 19.7852 66.4033 19.1188C66.4033 18.4972 66.5089 17.9278 66.72 17.4106C66.9312 16.8884 67.2184 16.4408 67.5818 16.0679C67.9501 15.6949 68.3773 15.4064 68.8634 15.2026C69.3544 14.9937 69.8774 14.8893 70.4322 14.8893C70.6876 14.8893 70.9405 14.9216 71.1909 14.9862C71.4413 15.0509 71.6844 15.1404 71.9201 15.2548C72.1558 15.3691 72.3792 15.5034 72.5903 15.6576C72.8064 15.8117 73.0077 15.9783 73.1943 16.1574L73.975 15.21H74.4611V23.1842ZM72.4356 19.1188C72.4356 18.8403 72.3816 18.5718 72.2736 18.3132C72.1705 18.0496 72.0281 17.8184 71.8464 17.6194C71.6647 17.4155 71.4511 17.2539 71.2056 17.1346C70.965 17.0102 70.7072 16.9481 70.4322 16.9481C70.1573 16.9481 69.897 16.9953 69.6515 17.0898C69.4109 17.1843 69.1998 17.3235 69.0181 17.5075C68.8413 17.6915 68.7014 17.9203 68.5982 18.1938C68.4951 18.4624 68.4436 18.7707 68.4436 19.1188C68.4436 19.4669 68.4951 19.7777 68.5982 20.0512C68.7014 20.3198 68.8413 20.546 69.0181 20.73C69.1998 20.914 69.4109 21.0533 69.6515 21.1478C69.897 21.2423 70.1573 21.2895 70.4322 21.2895C70.7072 21.2895 70.965 21.2298 71.2056 21.1105C71.4511 20.9862 71.6647 20.8245 71.8464 20.6256C72.0281 20.4217 72.1705 20.1905 72.2736 19.9319C72.3816 19.6683 72.4356 19.3973 72.4356 19.1188Z" fill="white"/>
<path d="M86.0323 23.1842H84.0289V18.1118C84.0289 17.9725 84.0019 17.8407 83.9479 17.7164C83.8988 17.5921 83.8275 17.4827 83.7343 17.3882C83.641 17.2937 83.5329 17.2216 83.4102 17.1719C83.2874 17.1172 83.1573 17.0898 83.0198 17.0898C82.8823 17.0898 82.7522 17.1172 82.6294 17.1719C82.5116 17.2216 82.406 17.2937 82.3127 17.3882C82.2243 17.4827 82.1531 17.5921 82.0991 17.7164C82.05 17.8407 82.0255 17.9725 82.0255 18.1118V23.1842H80.0147V18.1118C80.0147 17.9725 79.9877 17.8407 79.9337 17.7164C79.8846 17.5921 79.8134 17.4827 79.7201 17.3882C79.6268 17.2937 79.5188 17.2216 79.396 17.1719C79.2732 17.1172 79.1431 17.0898 79.0056 17.0898C78.8681 17.0898 78.738 17.1172 78.6153 17.1719C78.4974 17.2216 78.3918 17.2937 78.2985 17.3882C78.2102 17.4827 78.139 17.5921 78.0849 17.7164C78.0358 17.8407 78.0113 17.9725 78.0113 18.1118V23.1842H76.0005V15.1951H76.4866L77.0317 15.8068C77.3116 15.5681 77.6185 15.3841 77.9524 15.2548C78.2912 15.1205 78.6423 15.0534 79.0056 15.0534C79.3739 15.0534 79.7324 15.123 80.081 15.2622C80.4345 15.4015 80.7439 15.6427 81.009 15.9858C81.1318 15.8167 81.2717 15.6725 81.4289 15.5532C81.586 15.4338 81.7505 15.3368 81.9224 15.2622C82.0991 15.1876 82.2808 15.1354 82.4674 15.1056C82.654 15.0708 82.8381 15.0534 83.0198 15.0534C83.4372 15.0534 83.8275 15.1329 84.1909 15.2921C84.5592 15.4512 84.8784 15.67 85.1484 15.9485C85.4234 16.222 85.6395 16.5453 85.7966 16.9182C85.9537 17.2912 86.0323 17.6891 86.0323 18.1118V23.1842Z" fill="white"/>
<path d="M95.7915 12.4873L92.3224 23.1842H90.2085L86.7541 12.4873H89.1552L91.2618 19.626L93.3756 12.4873H95.7915Z" fill="white"/>
<path d="M98.966 13.0244C98.966 13.2134 98.9292 13.3899 98.8555 13.554C98.7868 13.7181 98.691 13.8623 98.5683 13.9867C98.4455 14.106 98.3007 14.203 98.1337 14.2776C97.9717 14.3472 97.7974 14.382 97.6108 14.382C97.4242 14.382 97.2474 14.3472 97.0805 14.2776C96.9184 14.203 96.776 14.106 96.6533 13.9867C96.5354 13.8623 96.4397 13.7181 96.366 13.554C96.2973 13.3899 96.2629 13.2134 96.2629 13.0244C96.2629 12.8404 96.2973 12.6663 96.366 12.5022C96.4397 12.3331 96.5354 12.1889 96.6533 12.0696C96.776 11.9452 96.9184 11.8483 97.0805 11.7786C97.2474 11.704 97.4242 11.6667 97.6108 11.6667C97.7974 11.6667 97.9717 11.704 98.1337 11.7786C98.3007 11.8483 98.4455 11.9452 98.5683 12.0696C98.691 12.1889 98.7868 12.3331 98.8555 12.5022C98.9292 12.6663 98.966 12.8404 98.966 13.0244ZM98.6198 23.1842H96.5943V15.1951H98.6198V23.1842Z" fill="white"/>
<path d="M108.055 19.1188C108.055 19.7454 107.949 20.3173 107.738 20.8345C107.527 21.3517 107.24 21.7968 106.877 22.1697C106.513 22.5377 106.086 22.8237 105.595 23.0276C105.109 23.2315 104.586 23.3334 104.026 23.3334C103.471 23.3334 102.948 23.229 102.457 23.0201C101.971 22.8113 101.544 22.5203 101.176 22.1474C100.812 21.7744 100.525 21.3318 100.314 20.8196C100.103 20.3024 99.9972 19.7354 99.9972 19.1188V12.0173H102.015V15.7471C102.123 15.6079 102.253 15.4835 102.406 15.3741C102.563 15.2647 102.73 15.1752 102.907 15.1056C103.088 15.036 103.275 14.9837 103.466 14.9489C103.658 14.9091 103.844 14.8893 104.026 14.8893C104.586 14.8893 105.109 14.9962 105.595 15.21C106.086 15.4189 106.513 15.7123 106.877 16.0902C107.24 16.4682 107.527 16.9158 107.738 17.4329C107.949 17.9452 108.055 18.5071 108.055 19.1188ZM106.029 19.1188C106.029 18.8105 105.975 18.5245 105.867 18.261C105.764 17.9924 105.622 17.7612 105.44 17.5672C105.259 17.3733 105.045 17.2216 104.799 17.1122C104.559 17.0028 104.301 16.9481 104.026 16.9481C103.751 16.9481 103.491 17.0102 103.245 17.1346C103.005 17.2539 102.794 17.4155 102.612 17.6194C102.43 17.8184 102.288 18.0496 102.185 18.3132C102.082 18.5718 102.03 18.8403 102.03 19.1188C102.03 19.4271 102.082 19.7131 102.185 19.9766C102.288 20.2402 102.43 20.469 102.612 20.6629C102.794 20.8569 103.005 21.011 103.245 21.1254C103.491 21.2348 103.751 21.2895 104.026 21.2895C104.301 21.2895 104.559 21.2348 104.799 21.1254C105.045 21.011 105.259 20.8569 105.44 20.6629C105.622 20.469 105.764 20.2402 105.867 19.9766C105.975 19.7131 106.029 19.4271 106.029 19.1188Z" fill="white"/>
<path d="M112.312 21.2298C112.391 21.2547 112.469 21.2721 112.548 21.2821C112.626 21.287 112.705 21.2895 112.784 21.2895C112.98 21.2895 113.169 21.2622 113.351 21.2075C113.532 21.1528 113.702 21.0757 113.859 20.9762C114.021 20.8718 114.163 20.7475 114.286 20.6032C114.414 20.454 114.517 20.2899 114.596 20.1109L116.069 21.6103C115.882 21.8788 115.666 22.12 115.42 22.3338C115.18 22.5477 114.917 22.7292 114.632 22.8784C114.352 23.0276 114.055 23.1395 113.741 23.2141C113.432 23.2936 113.113 23.3334 112.784 23.3334C112.229 23.3334 111.706 23.229 111.215 23.0201C110.729 22.8113 110.301 22.5203 109.933 22.1474C109.57 21.7744 109.283 21.3318 109.071 20.8196C108.86 20.3024 108.755 19.7354 108.755 19.1188C108.755 18.4872 108.86 17.9104 109.071 17.3882C109.283 16.866 109.57 16.4209 109.933 16.0529C110.301 15.6849 110.729 15.399 111.215 15.1951C111.706 14.9912 112.229 14.8893 112.784 14.8893C113.113 14.8893 113.434 14.929 113.748 15.0086C114.063 15.0882 114.36 15.2026 114.64 15.3517C114.925 15.5009 115.19 15.6849 115.435 15.9037C115.681 16.1176 115.897 16.3588 116.083 16.6273L112.312 21.2298ZM113.343 17.0301C113.25 16.9953 113.157 16.9729 113.064 16.963C112.975 16.9531 112.882 16.9481 112.784 16.9481C112.509 16.9481 112.248 17.0003 112.003 17.1047C111.762 17.2042 111.551 17.3484 111.369 17.5374C111.193 17.7264 111.053 17.9551 110.95 18.2237C110.847 18.4872 110.795 18.7856 110.795 19.1188C110.795 19.1934 110.797 19.2779 110.802 19.3724C110.812 19.4669 110.824 19.5639 110.839 19.6633C110.859 19.7578 110.881 19.8498 110.905 19.9393C110.93 20.0289 110.962 20.1084 111.001 20.178L113.343 17.0301Z" fill="white"/>
</svg>
