<svg width="20" height="20" viewBox="0 0 20 20" fill="none" xmlns="http://www.w3.org/2000/svg">
<path d="M4.63867 3.88103C4.95292 3.7956 5.28358 3.75 5.62488 3.75H14.3749C14.7162 3.75 15.0468 3.7956 15.3611 3.88103C14.9505 3.06211 14.1033 2.5 13.1249 2.5H6.87488C5.89642 2.5 5.04925 3.06211 4.63867 3.88103Z" fill="#999999"/>
<path d="M1.875 10C1.875 8.61929 2.99429 7.5 4.375 7.5H15.625C17.0057 7.5 18.125 8.61929 18.125 10V15C18.125 16.3807 17.0057 17.5 15.625 17.5H4.375C2.99429 17.5 1.875 16.3807 1.875 15V10Z" fill="#999999"/>
<path d="M4.37488 6.25C4.03358 6.25 3.70292 6.2956 3.38867 6.38103C3.79925 5.56211 4.64642 5 5.62488 5H14.3749C15.3533 5 16.2005 5.56211 16.6111 6.38103C16.2968 6.2956 15.9662 6.25 15.6249 6.25H4.37488Z" fill="#999999"/>
</svg>
